<svg xmlns="http://www.w3.org/2000/svg" xmlns:xlink="http://www.w3.org/1999/xlink" width="300" zoomAndPan="magnify" viewBox="0 0 224.87999 63.749997" height="85" preserveAspectRatio="xMidYMid meet" version="1.0"><defs><g/><clipPath id="e8511ada65"><path d="M 0.378906 1 L 224.382812 1 L 224.382812 63 L 0.378906 63 Z M 0.378906 1 " clip-rule="nonzero"/></clipPath></defs><g fill="#191919" fill-opacity="1"><g transform="translate(4.906947, 50.220316)"><g><path d="M 11.355469 -41.832031 C 10.804688 -41.832031 10.257812 -41.382812 10.160156 -40.835938 C 1.691406 -0.894531 1.644531 -0.796875 1.644531 -0.746094 C 1.644531 -0.296875 2.042969 0 2.488281 0 L 8.417969 0 C 8.964844 0 9.460938 -0.449219 9.613281 -0.996094 L 13.148438 -17.730469 L 15.539062 -17.730469 C 12 -0.894531 11.953125 -0.796875 11.953125 -0.746094 C 11.953125 -0.296875 12.351562 0 12.796875 0 L 18.726562 0 C 19.273438 0 19.769531 -0.449219 19.917969 -0.996094 L 28.386719 -41.035156 C 28.386719 -41.484375 28.085938 -41.832031 27.589844 -41.832031 L 21.664062 -41.832031 C 21.113281 -41.832031 20.566406 -41.382812 20.46875 -40.835938 L 16.882812 -24.101562 L 14.492188 -24.101562 L 18.078125 -41.035156 C 18.078125 -41.484375 17.777344 -41.832031 17.28125 -41.832031 Z M 11.355469 -41.832031 "/></g></g></g><g fill="#191919" fill-opacity="1"><g transform="translate(28.61069, 50.220316)"><g><path d="M 13.792969 -41.832031 C 12.898438 -41.832031 10.359375 -41.78125 9.613281 -38.347656 C 1.691406 -0.894531 1.644531 -0.796875 1.644531 -0.746094 C 1.644531 -0.296875 2.042969 0 2.488281 0 L 8.417969 0 C 8.964844 0 9.460938 -0.449219 9.613281 -0.996094 L 12.5 -14.742188 L 14.890625 -14.742188 C 12 -0.894531 11.953125 -0.796875 11.953125 -0.746094 C 11.953125 -0.296875 12.351562 0 12.796875 0 L 18.726562 0 C 19.273438 0 19.769531 -0.449219 19.917969 -0.996094 C 28.039062 -38.792969 28.085938 -39.140625 28.085938 -39.492188 C 28.085938 -41.78125 26.046875 -41.832031 25.25 -41.832031 Z M 16.933594 -35.40625 L 19.324219 -35.40625 L 16.285156 -21.113281 L 13.894531 -21.113281 Z M 16.933594 -35.40625 "/></g></g></g><g fill="#191919" fill-opacity="1"><g transform="translate(52.41403, 50.220316)"><g><path d="M 9.613281 -38.347656 C 2.089844 -3.085938 2.089844 -2.6875 2.089844 -2.390625 C 2.089844 0 4.183594 0 4.980469 0 L 18.277344 0 C 18.824219 0 19.324219 -0.449219 19.472656 -0.996094 L 20.367188 -5.429688 L 20.367188 -5.628906 C 20.367188 -6.074219 20.070312 -6.425781 19.570312 -6.425781 L 10.757812 -6.425781 L 16.933594 -35.40625 L 25.25 -35.40625 C 25.796875 -35.40625 26.34375 -35.855469 26.445312 -36.402344 L 27.441406 -41.035156 C 27.441406 -41.484375 27.140625 -41.832031 26.644531 -41.832031 L 13.84375 -41.832031 C 12.949219 -41.832031 10.359375 -41.832031 9.613281 -38.347656 Z M 9.613281 -38.347656 "/></g></g></g><g fill="#191919" fill-opacity="1"><g transform="translate(74.872857, 50.220316)"><g><path d="M 24.898438 -24.652344 L 28.335938 -41.035156 C 28.335938 -41.484375 28.039062 -41.832031 27.539062 -41.832031 L 21.664062 -41.832031 C 21.113281 -41.78125 20.566406 -41.332031 20.46875 -40.785156 L 16.933594 -24.203125 L 14.492188 -24.203125 L 18.027344 -41.035156 C 18.027344 -41.484375 17.730469 -41.832031 17.230469 -41.832031 L 11.355469 -41.832031 C 10.804688 -41.832031 10.257812 -41.382812 10.160156 -40.835938 C 1.691406 -0.894531 1.644531 -0.796875 1.644531 -0.746094 C 1.644531 -0.296875 2.042969 0 2.488281 0 L 8.367188 0 C 8.914062 0 9.414062 -0.449219 9.5625 -0.996094 L 13.097656 -17.777344 L 15.539062 -17.777344 C 12 -0.894531 11.953125 -0.796875 11.953125 -0.746094 C 11.953125 -0.296875 12.351562 0 12.796875 0 L 18.675781 0 C 19.273438 0 19.71875 -0.449219 19.871094 -0.945312 C 23.457031 -17.878906 23.503906 -18.277344 23.503906 -18.625 C 23.503906 -20.914062 21.511719 -20.914062 20.714844 -20.914062 L 20.765625 -21.164062 C 21.664062 -21.164062 24.152344 -21.164062 24.898438 -24.652344 Z M 24.898438 -24.652344 "/></g></g></g><g fill="#191919" fill-opacity="1"><g transform="translate(98.526808, 50.220316)"><g><path d="M 10.160156 -40.835938 C 1.691406 -0.894531 1.644531 -0.796875 1.644531 -0.746094 C 1.644531 -0.296875 2.042969 0 2.488281 0 L 17.03125 0 C 17.578125 0 18.078125 -0.449219 18.226562 -0.996094 L 19.125 -5.429688 L 19.125 -5.628906 C 19.125 -6.074219 18.824219 -6.425781 18.328125 -6.425781 L 10.757812 -6.425781 L 13.246094 -18.226562 L 18.375 -18.226562 C 18.925781 -18.226562 19.472656 -18.675781 19.621094 -19.222656 C 20.617188 -24.203125 20.667969 -24.253906 20.667969 -24.351562 C 20.667969 -24.800781 20.316406 -25.097656 19.871094 -25.097656 L 14.742188 -25.097656 L 16.933594 -35.40625 L 24.5 -35.40625 C 25.050781 -35.40625 25.597656 -35.855469 25.695312 -36.402344 L 26.691406 -41.035156 C 26.691406 -41.484375 26.394531 -41.832031 25.894531 -41.832031 L 11.355469 -41.832031 C 10.804688 -41.832031 10.257812 -41.382812 10.160156 -40.835938 Z M 10.160156 -40.835938 "/></g></g></g><g fill="#191919" fill-opacity="1"><g transform="translate(120.537452, 50.220316)"><g><path d="M 24.949219 -24.351562 C 28.039062 -38.792969 28.085938 -39.140625 28.085938 -39.492188 C 28.085938 -41.78125 26.046875 -41.832031 25.25 -41.832031 L 11.355469 -41.832031 C 10.804688 -41.832031 10.257812 -41.382812 10.160156 -40.835938 C 1.691406 -0.894531 1.644531 -0.796875 1.644531 -0.746094 C 1.644531 -0.296875 2.042969 0 2.488281 0 L 8.417969 0 C 8.964844 0 9.460938 -0.449219 9.613281 -0.996094 L 13.148438 -17.730469 L 15.539062 -17.730469 C 12 -0.894531 11.953125 -0.796875 11.953125 -0.746094 C 11.953125 -0.296875 12.351562 0 12.796875 0 L 18.726562 0 C 19.273438 0 19.769531 -0.449219 19.917969 -0.996094 C 23.457031 -17.578125 23.503906 -17.929688 23.503906 -18.277344 C 23.503906 -20.617188 21.464844 -20.617188 20.667969 -20.617188 L 20.765625 -20.867188 C 21.664062 -20.867188 24.253906 -20.867188 24.949219 -24.351562 Z M 16.933594 -35.40625 L 19.324219 -35.40625 L 16.882812 -24.101562 L 14.492188 -24.101562 Z M 16.933594 -35.40625 "/></g></g></g><g fill="#191919" fill-opacity="1"><g transform="translate(144.340787, 50.220316)"><g><path d="M 1.691406 -0.996094 C 1.691406 -0.894531 1.644531 -0.796875 1.644531 -0.746094 C 1.644531 -0.296875 2.042969 0 2.488281 0 L 8.417969 0 C 8.964844 0 9.460938 -0.449219 9.613281 -0.996094 L 12.5 -14.742188 L 18.875 -14.742188 C 19.421875 -14.742188 19.96875 -15.1875 20.117188 -15.738281 C 21.113281 -20.714844 21.164062 -20.765625 21.164062 -20.867188 C 21.164062 -21.3125 20.816406 -21.613281 20.367188 -21.613281 L 13.992188 -21.613281 L 16.933594 -35.40625 L 24.75 -35.40625 C 25.296875 -35.40625 25.847656 -35.855469 25.945312 -36.402344 L 26.941406 -41.035156 C 26.941406 -41.484375 26.644531 -41.832031 26.144531 -41.832031 L 11.355469 -41.832031 C 10.804688 -41.832031 10.257812 -41.382812 10.160156 -40.835938 Z M 1.691406 -0.996094 "/></g></g></g><g fill="#191919" fill-opacity="1"><g transform="translate(165.953067, 50.220316)"><g><path d="M 18.078125 -41.035156 C 18.078125 -41.484375 17.777344 -41.832031 17.28125 -41.832031 L 11.355469 -41.832031 C 10.804688 -41.832031 10.257812 -41.382812 10.160156 -40.835938 L -0.199219 8.167969 C -0.199219 8.617188 0.0507812 8.964844 0.546875 8.964844 L 17.777344 8.964844 C 18.328125 8.964844 18.875 8.515625 18.972656 7.96875 L 20.070312 3.039062 L 20.070312 2.839844 C 20.070312 2.390625 19.769531 2.042969 19.273438 2.042969 L 8.964844 2.042969 Z M 18.078125 -41.035156 "/></g></g></g><g fill="#191919" fill-opacity="1"><g transform="translate(179.348852, 50.220316)"><g><path d="M 11.355469 -41.832031 C 10.804688 -41.832031 10.257812 -41.382812 10.160156 -40.835938 C 1.691406 -0.894531 1.644531 -0.796875 1.644531 -0.746094 C 1.644531 -0.296875 2.042969 0 2.488281 0 L 8.417969 0 C 8.964844 0 9.460938 -0.449219 9.613281 -0.996094 L 18.078125 -41.035156 C 18.078125 -41.484375 17.777344 -41.832031 17.28125 -41.832031 Z M 11.355469 -41.832031 "/></g></g></g><g fill="#191919" fill-opacity="1"><g transform="translate(192.744636, 50.220316)"><g><path d="M 10.160156 -40.835938 C 6.324219 -22.90625 6.273438 -22.507812 6.273438 -22.160156 C 6.273438 -19.871094 8.265625 -19.871094 9.0625 -19.871094 L 9.015625 -19.621094 C 8.117188 -19.621094 5.628906 -19.621094 4.878906 -16.136719 C 1.691406 -0.894531 1.644531 -0.796875 1.644531 -0.746094 C 1.644531 -0.296875 2.042969 0 2.488281 0 L 8.464844 0 C 9.015625 0 9.511719 -0.449219 9.660156 -0.996094 L 12.996094 -16.683594 L 15.488281 -16.683594 C 12.152344 -0.894531 12.101562 -0.796875 12.101562 -0.746094 C 12.101562 -0.296875 12.5 0 12.949219 0 L 18.925781 0 C 19.472656 0 19.96875 -0.449219 20.117188 -0.996094 C 23.40625 -16.582031 23.457031 -16.980469 23.457031 -17.332031 C 23.457031 -19.621094 21.464844 -19.621094 20.667969 -19.621094 L 20.714844 -19.871094 C 21.613281 -19.871094 24.101562 -19.871094 24.851562 -23.355469 L 28.585938 -41.035156 C 28.585938 -41.484375 28.285156 -41.832031 27.789062 -41.832031 L 21.8125 -41.832031 C 21.265625 -41.832031 20.714844 -41.382812 20.617188 -40.835938 L 16.832031 -23.15625 L 14.34375 -23.15625 L 18.128906 -40.835938 L 18.128906 -41.035156 C 18.128906 -41.484375 17.828125 -41.832031 17.332031 -41.832031 L 11.355469 -41.832031 C 10.804688 -41.832031 10.257812 -41.382812 10.160156 -40.835938 Z M 10.160156 -40.835938 "/></g></g></g><g clip-path="url(#e8511ada65)"><path stroke-linecap="butt" transform="matrix(0.74707, 0, 0, 0.74707, 3.366192, 3.855347)" fill="none" stroke-linejoin="miter" d="M 15.201334 4.000164 C 14.469307 4.000164 13.737281 4.601471 13.606562 5.333497 C 2.260156 58.797554 2.197411 58.928273 2.197411 59.006705 C 2.197411 59.592326 2.735973 60.000169 3.33728 60.000169 L 11.264078 60.000169 C 11.996104 60.000169 12.660157 59.398862 12.874536 58.666835 L 17.590876 36.272062 L 20.796105 36.272062 C 16.064079 58.797554 15.996105 58.928273 15.996105 59.006705 C 15.996105 59.592326 16.534667 60.000169 17.135974 60.000169 L 25.062772 60.000169 C 25.794799 60.000169 26.46408 59.398862 26.657544 58.666835 L 37.998721 5.072059 C 37.998721 4.470752 37.596107 4.000164 36.926826 4.000164 L 29.000028 4.000164 C 28.268001 4.000164 27.535975 4.601471 27.38957 5.333497 L 22.605256 27.743957 L 19.400027 27.743957 L 24.200027 5.072059 C 24.200027 4.470752 23.792184 4.000164 23.128132 4.000164 Z M 50.202644 4.000164 C 48.994801 4.000164 45.596107 4.062909 44.602643 8.669445 C 33.993492 58.797554 33.925518 58.928273 33.925518 59.006705 C 33.925518 59.592326 34.46408 60.000169 35.065388 60.000169 L 42.992186 60.000169 C 43.724212 60.000169 44.388264 59.398862 44.602643 58.666835 L 48.461467 40.277291 L 51.666696 40.277291 C 47.792186 58.797554 47.724212 58.928273 47.724212 59.006705 C 47.724212 59.592326 48.262774 60.000169 48.864082 60.000169 L 56.79088 60.000169 C 57.522906 60.000169 58.192187 59.398862 58.385651 58.666835 C 69.25624 8.068138 69.324214 7.613236 69.324214 7.142648 C 69.324214 4.062909 66.589573 4.000164 65.533364 4.000164 Z M 54.401337 12.606701 L 57.59088 12.606701 L 53.522906 31.7335 L 50.328134 31.7335 Z M 76.466698 8.669445 C 66.390881 55.864221 66.390881 56.402783 66.390881 56.79494 C 66.390881 60.000169 69.188266 60.000169 70.265391 60.000169 L 88.053628 60.000169 C 88.785654 60.000169 89.449706 59.398862 89.664085 58.666835 L 90.851013 52.742652 L 90.851013 52.465528 C 90.851013 51.86422 90.458857 51.409318 89.794804 51.409318 L 77.993496 51.409318 L 86.260163 12.606701 L 97.392191 12.606701 C 98.124217 12.606701 98.856243 12.005393 98.986962 11.273367 L 100.320295 5.072059 C 100.320295 4.470752 99.917681 4.000164 99.2484 4.000164 L 82.129444 4.000164 C 80.921601 4.000164 77.454934 4.000164 76.466698 8.669445 Z M 126.981736 26.996244 L 131.588272 5.072059 C 131.588272 4.470752 131.180429 4.000164 130.516376 4.000164 L 122.652323 4.000164 C 121.920297 4.062909 121.188271 4.669445 121.041866 5.401471 L 116.325526 27.597552 L 113.052323 27.597552 L 117.789578 5.072059 C 117.789578 4.470752 117.381735 4.000164 116.712454 4.000164 L 108.853629 4.000164 C 108.121603 4.000164 107.389577 4.601471 107.258858 5.333497 C 95.917681 58.797554 95.849707 58.928273 95.849707 59.006705 C 95.849707 59.592326 96.388269 60.000169 96.989576 60.000169 L 104.8484 60.000169 C 105.580427 60.000169 106.249708 59.398862 106.443172 58.666835 L 111.180427 36.209317 L 114.45363 36.209317 C 109.716375 58.797554 109.653629 58.928273 109.653629 59.006705 C 109.653629 59.592326 110.186963 60.000169 110.78827 60.000169 L 118.652323 60.000169 C 119.447094 60.000169 120.048402 59.398862 120.247094 58.729581 C 125.047095 36.078598 125.10984 35.540036 125.10984 35.069448 C 125.10984 32.005395 122.443173 32.005395 121.386964 32.005395 L 121.449709 31.665526 C 122.652323 31.665526 125.9935 31.665526 126.981736 26.996244 Z M 138.918992 5.333497 C 127.577814 58.797554 127.515069 58.928273 127.515069 59.006705 C 127.515069 59.592326 128.048402 60.000169 128.64971 60.000169 L 148.116378 60.000169 C 148.848404 60.000169 149.517685 59.398862 149.711149 58.666835 L 150.913764 52.742652 L 150.913764 52.465528 C 150.913764 51.86422 150.511149 51.409318 149.841868 51.409318 L 139.718992 51.409318 L 143.05494 35.602781 L 149.904613 35.602781 C 150.63664 35.602781 151.389581 35.001474 151.583045 34.269448 C 152.916378 27.597552 152.984352 27.534807 152.984352 27.404088 C 152.984352 26.80278 152.508535 26.410623 151.907228 26.410623 L 145.041868 26.410623 L 147.985659 12.606701 L 158.108536 12.606701 C 158.840562 12.606701 159.572588 12.005393 159.718993 11.273367 L 161.036641 5.072059 C 161.036641 4.470752 160.649712 4.000164 159.980431 4.000164 L 140.513763 4.000164 C 139.781737 4.000164 139.049711 4.601471 138.918992 5.333497 Z M 188.173898 27.404088 C 192.309846 8.068138 192.372591 7.613236 192.372591 7.142648 C 192.372591 4.062909 189.63795 4.000164 188.581741 4.000164 L 169.977818 4.000164 C 169.245792 4.000164 168.513765 4.601471 168.383046 5.333497 C 157.041869 58.797554 156.973895 58.928273 156.973895 59.006705 C 156.973895 59.592326 157.512457 60.000169 158.113765 60.000169 L 166.040563 60.000169 C 166.772589 60.000169 167.44187 59.398862 167.65102 58.666835 L 172.372589 36.272062 L 175.577818 36.272062 C 170.840563 58.797554 170.777818 58.928273 170.777818 59.006705 C 170.777818 59.592326 171.311151 60.000169 171.917687 60.000169 L 179.839257 60.000169 C 180.571283 60.000169 181.240564 59.398862 181.434028 58.666835 C 186.171283 36.465526 186.239257 35.994938 186.239257 35.540036 C 186.239257 32.397552 183.504616 32.397552 182.443178 32.397552 L 182.573897 32.073369 C 183.781741 32.073369 187.248408 32.073369 188.173898 27.404088 Z M 177.449714 12.606701 L 180.639257 12.606701 L 177.38174 27.743957 L 174.176511 27.743957 Z M 188.900695 58.666835 C 188.900695 58.797554 188.83795 58.928273 188.83795 59.006705 C 188.83795 59.592326 189.376512 60.000169 189.97782 60.000169 L 197.904618 60.000169 C 198.636644 60.000169 199.300696 59.398862 199.515075 58.666835 L 203.36867 40.277291 L 211.896776 40.277291 C 212.628802 40.277291 213.366057 39.670755 213.575207 38.938729 C 214.908541 32.266833 214.976515 32.204088 214.976515 32.073369 C 214.976515 31.472062 214.500698 31.064219 213.89939 31.064219 L 205.371285 31.064219 L 209.30854 12.606701 L 219.776515 12.606701 C 220.508541 12.606701 221.240568 12.005393 221.371286 11.273367 L 222.70462 5.072059 C 222.70462 4.470752 222.296777 4.000164 221.632724 4.000164 L 201.841873 4.000164 C 201.109847 4.000164 200.377821 4.601471 200.247102 5.333497 Z M 239.771288 5.072059 C 239.771288 4.470752 239.363445 4.000164 238.694164 4.000164 L 230.772594 4.000164 C 230.040568 4.000164 229.303313 4.601471 229.177823 5.333497 L 215.311155 70.938732 C 215.311155 71.540039 215.635338 71.994941 216.304619 71.994941 L 239.363445 71.994941 C 240.095471 71.994941 240.827497 71.393634 240.973903 70.661608 L 242.437955 64.068143 L 242.437955 63.791019 C 242.437955 63.205398 242.030112 62.73481 241.366059 62.73481 L 227.562137 62.73481 Z M 248.702008 4.000164 C 247.969982 4.000164 247.237955 4.601471 247.107236 5.333497 C 235.766059 58.797554 235.698085 58.928273 235.698085 59.006705 C 235.698085 59.592326 236.236647 60.000169 236.837955 60.000169 L 244.764753 60.000169 C 245.496779 60.000169 246.160831 59.398862 246.37521 58.666835 L 257.700701 5.072059 C 257.700701 4.470752 257.292858 4.000164 256.628806 4.000164 Z M 265.03665 5.333497 C 259.89678 29.338728 259.828806 29.87729 259.828806 30.332192 C 259.828806 33.406702 262.500702 33.406702 263.556911 33.406702 L 263.494166 33.730885 C 262.302009 33.730885 258.966061 33.730885 257.956911 38.405396 C 253.695472 58.797554 253.627498 58.928273 253.627498 59.006705 C 253.627498 59.592326 254.166061 60.000169 254.767368 60.000169 L 262.756911 60.000169 C 263.494166 60.000169 264.158218 59.398862 264.372597 58.666835 L 268.8275 37.67337 L 272.163448 37.67337 C 267.692859 58.797554 267.624885 58.928273 267.624885 59.006705 C 267.624885 59.592326 268.163447 60.000169 268.764755 60.000169 L 276.754298 60.000169 C 277.50201 60.000169 278.155605 59.398862 278.364756 58.666835 C 282.762142 37.804088 282.824887 37.265526 282.824887 36.810624 C 282.824887 33.730885 280.15822 33.730885 279.096782 33.730885 L 279.164756 33.406702 C 280.36737 33.406702 283.687632 33.406702 284.696782 28.737421 L 289.695476 5.072059 C 289.695476 4.470752 289.303319 4.000164 288.634038 4.000164 L 280.628808 4.000164 C 279.896782 4.000164 279.164756 4.601471 279.034037 5.333497 L 273.956912 28.998859 L 270.63665 28.998859 L 275.698089 5.333497 L 275.698089 5.072059 C 275.698089 4.470752 275.290246 4.000164 274.620964 4.000164 L 266.631421 4.000164 C 265.899395 4.000164 265.167369 4.601471 265.03665 5.333497 Z M 265.03665 5.333497 " stroke="#00d7ff" stroke-width="1.250001" stroke-opacity="1" stroke-miterlimit="4"/></g></svg>